<?xml version="1.0" encoding="UTF-8"?>
<svg id="Layer_2" data-name="Layer 2" xmlns="http://www.w3.org/2000/svg" xmlns:xlink="http://www.w3.org/1999/xlink" viewBox="0 0 254.42 172.82">
  <defs>
    <style>
      .cls-1 {
        fill: url(#linear-gradient-2);
      }

      .cls-2 {
        fill: #6a52a2;
      }

      .cls-3 {
        fill: url(#linear-gradient-3);
      }

      .cls-4 {
        fill: url(#linear-gradient);
      }
    </style>
    <linearGradient id="linear-gradient" x1="121.55" y1="91.65" x2="187.76" y2="91.65" gradientUnits="userSpaceOnUse">
      <stop offset=".05" stop-color="#2b2565"/>
      <stop offset=".63" stop-color="#61489d"/>
      <stop offset="1" stop-color="#6a52a2"/>
    </linearGradient>
    <linearGradient id="linear-gradient-2" x1="167.92" y1="67.43" x2="191.7" y2="67.43" xlink:href="#linear-gradient"/>
    <linearGradient id="linear-gradient-3" x1="62.71" y1="54.6" x2="172.5" y2="54.6" xlink:href="#linear-gradient"/>
  </defs>
  <g id="Layer_1-2" data-name="Layer 1">
    <g>
      <path class="cls-4" d="m157.8,122.42c3.61-9.58,11.29-21.09,27.64-27.16,3.11-1.16,3.1-5.56,0-6.73-9.81-3.71-22.19-11.49-27.91-27.69-1.06-3.01-5.28-3.13-6.44-.15-3.8,9.7-11.55,21.94-27.18,27.63-3.07,1.12-3.15,5.39-.12,6.59,9.52,3.77,21.13,11.54,27.18,27.5,1.2,3.16,5.65,3.16,6.84,0Z"/>
      <path class="cls-1" d="m180.33,78.9c.95-3.54,3.58-8.75,10.92-10.8.6-.17.6-1.01,0-1.18-3.54-1-9.2-3.73-10.98-11-.14-.56-.91-.58-1.07-.03-1.04,3.5-3.78,9.16-10.83,10.94-.58.15-.59.96-.02,1.13,3.51,1.03,8.78,3.75,10.79,10.95.17.6,1.03.6,1.19,0Z"/>
      <path class="cls-3" d="m117.35,77.65c-.61.06-1.22.09-1.83.1-5.48.02-10.53-2.28-15.14-6.89-4.54-4.54-6.72-9.85-6.56-15.94.16-6.09,2.63-11.53,7.42-16.32,4.96-4.96,10.56-7.55,16.8-7.74,6.23-.2,11.67,2.03,16.32,6.67,4.81,4.81,6.84,10.35,6.12,16.61h32.02c0-14.37-5.36-26.91-16.07-37.62C145.46,5.56,132.52.05,117.61,0c-14.91-.05-27.82,5.37-38.71,16.26-10.82,10.82-16.22,23.56-16.18,38.2.04,14.65,5.5,27.42,16.4,38.31,10.72,10.72,22.62,16.19,35.71,16.42.84.01,1.68,0,2.53-.02v-31.53Z"/>
    </g>
    <g>
      <path class="cls-2" d="m2.06,148.76c1.37-2.41,3.25-4.28,5.62-5.62,2.38-1.34,5.04-2.01,7.99-2.01,3.45,0,6.48.89,9.08,2.66,2.6,1.77,4.41,4.22,5.44,7.35h-7.13c-.71-1.48-1.7-2.58-2.99-3.32-1.28-.74-2.77-1.11-4.45-1.11-1.8,0-3.4.42-4.8,1.26s-2.49,2.03-3.28,3.56c-.78,1.54-1.17,3.34-1.17,5.4s.39,3.83,1.17,5.38c.78,1.55,1.87,2.74,3.28,3.59s3,1.26,4.8,1.26c1.68,0,3.16-.38,4.45-1.13s2.28-1.87,2.99-3.34h7.13c-1.03,3.16-2.84,5.62-5.42,7.37-2.58,1.76-5.62,2.63-9.1,2.63-2.95,0-5.62-.67-7.99-2.01-2.38-1.34-4.25-3.21-5.62-5.6-1.37-2.39-2.06-5.11-2.06-8.15s.69-5.76,2.06-8.17Z"/>
      <path class="cls-2" d="m54.27,148.76c1.45.81,2.57,2.01,3.39,3.59s1.22,3.48,1.22,5.69v14.39h-6.2v-13.55c0-1.95-.49-3.45-1.46-4.49-.97-1.05-2.3-1.57-3.98-1.57s-3.06.52-4.05,1.57c-.99,1.05-1.48,2.55-1.48,4.49v13.55h-6.2v-32.76h6.2v11.29c.8-1.06,1.86-1.9,3.19-2.5,1.33-.6,2.8-.91,4.43-.91,1.86,0,3.51.41,4.96,1.22Z"/>
      <path class="cls-2" d="m64.66,153.48c.99-1.92,2.33-3.39,4.03-4.43,1.7-1.03,3.59-1.55,5.69-1.55,1.83,0,3.43.37,4.8,1.11,1.37.74,2.47,1.67,3.3,2.79v-3.5h6.24v24.53h-6.24v-3.59c-.8,1.15-1.9,2.1-3.3,2.86-1.4.75-3.02,1.13-4.85,1.13-2.07,0-3.95-.53-5.64-1.59-1.7-1.06-3.04-2.56-4.03-4.49-.99-1.93-1.48-4.15-1.48-6.66s.49-4.68,1.48-6.6Zm16.93,2.81c-.59-1.08-1.39-1.9-2.39-2.48-1-.58-2.08-.86-3.23-.86s-2.21.28-3.19.84c-.97.56-1.76,1.38-2.37,2.46-.61,1.08-.91,2.35-.91,3.83s.3,2.77.91,3.87c.6,1.11,1.4,1.96,2.39,2.55.99.59,2.04.89,3.16.89s2.23-.29,3.23-.86c1-.58,1.8-1.4,2.39-2.48.59-1.08.89-2.37.89-3.87s-.3-2.8-.89-3.87Z"/>
      <path class="cls-2" d="m104.1,148.65c1.28-.74,2.75-1.11,4.41-1.11v6.51h-1.64c-1.95,0-3.42.46-4.4,1.37-.99.92-1.48,2.51-1.48,4.78v12.22h-6.2v-24.53h6.2v3.81c.8-1.3,1.84-2.32,3.12-3.05Z"/>
      <path class="cls-2" d="m119.88,152.99v11.86c0,.83.2,1.42.6,1.79.4.37,1.07.55,2.01.55h2.88v5.22h-3.9c-5.22,0-7.84-2.54-7.84-7.61v-11.82h-2.92v-5.09h2.92v-6.06h6.24v6.06h5.49v5.09h-5.49Z"/>
      <path class="cls-2" d="m134.36,171.25c-1.89-1.05-3.37-2.53-4.45-4.45-1.08-1.92-1.62-4.13-1.62-6.64s.55-4.72,1.66-6.64c1.11-1.92,2.62-3.4,4.54-4.45,1.92-1.05,4.06-1.57,6.42-1.57s4.5.52,6.42,1.57c1.92,1.05,3.43,2.53,4.54,4.45,1.11,1.92,1.66,4.13,1.66,6.64s-.57,4.72-1.7,6.64c-1.14,1.92-2.67,3.4-4.6,4.45-1.93,1.05-4.09,1.57-6.49,1.57s-4.49-.52-6.38-1.57Zm9.54-4.65c.99-.55,1.78-1.36,2.37-2.46.59-1.09.89-2.42.89-3.98,0-2.33-.61-4.12-1.84-5.38-1.23-1.25-2.72-1.88-4.49-1.88s-3.25.63-4.45,1.88c-1.2,1.25-1.79,3.05-1.79,5.38s.58,4.12,1.75,5.38c1.17,1.25,2.63,1.88,4.4,1.88,1.12,0,2.18-.27,3.17-.82Z"/>
      <path class="cls-2" d="m167.4,148.65c1.28-.74,2.75-1.11,4.41-1.11v6.51h-1.64c-1.95,0-3.42.46-4.4,1.37-.99.92-1.48,2.51-1.48,4.78v12.22h-6.2v-24.53h6.2v3.81c.8-1.3,1.84-2.32,3.12-3.05Z"/>
      <path class="cls-2" d="m175.86,153.48c.99-1.92,2.33-3.39,4.03-4.43,1.7-1.03,3.59-1.55,5.69-1.55,1.83,0,3.43.37,4.8,1.11,1.37.74,2.47,1.67,3.3,2.79v-3.5h6.24v24.53h-6.24v-3.59c-.8,1.15-1.9,2.1-3.3,2.86-1.4.75-3.02,1.13-4.85,1.13-2.07,0-3.95-.53-5.64-1.59-1.7-1.06-3.04-2.56-4.03-4.49-.99-1.93-1.48-4.15-1.48-6.66s.49-4.68,1.48-6.6Zm16.93,2.81c-.59-1.08-1.39-1.9-2.39-2.48-1-.58-2.08-.86-3.23-.86s-2.21.28-3.19.84c-.97.56-1.76,1.38-2.37,2.46-.61,1.08-.91,2.35-.91,3.83s.3,2.77.91,3.87c.6,1.11,1.4,1.96,2.39,2.55.99.59,2.04.89,3.16.89s2.23-.29,3.23-.86c1-.58,1.8-1.4,2.39-2.48.59-1.08.89-2.37.89-3.87s-.3-2.8-.89-3.87Z"/>
      <path class="cls-2" d="m235.47,166.54h-12.31l-2.04,5.89h-6.51l11.11-30.94h7.22l11.11,30.94h-6.55l-2.04-5.89Zm-1.68-4.96l-4.47-12.93-4.47,12.93h8.94Z"/>
      <path class="cls-2" d="m254.42,141.52v30.9h-6.2v-30.9h6.2Z"/>
    </g>
  </g>
</svg>