<?xml version="1.0" encoding="UTF-8"?>
<svg id="Layer_2" data-name="Layer 2" xmlns="http://www.w3.org/2000/svg" xmlns:xlink="http://www.w3.org/1999/xlink" viewBox="0 0 529.89 124.79">
  <defs>
    <style>
      .cls-1 {
        fill: url(#linear-gradient-2);
      }

      .cls-2 {
        fill: #6a52a2;
      }

      .cls-3 {
        fill: url(#linear-gradient-3);
      }

      .cls-4 {
        fill: url(#linear-gradient);
      }
    </style>
    <linearGradient id="linear-gradient" x1="58.83" y1="91.65" x2="125.05" y2="91.65" gradientUnits="userSpaceOnUse">
      <stop offset=".05" stop-color="#2b2565"/>
      <stop offset=".63" stop-color="#61489d"/>
      <stop offset="1" stop-color="#6a52a2"/>
    </linearGradient>
    <linearGradient id="linear-gradient-2" x1="105.21" y1="67.43" x2="128.99" y2="67.43" xlink:href="#linear-gradient"/>
    <linearGradient id="linear-gradient-3" x1="0" y1="54.6" x2="109.78" y2="54.6" xlink:href="#linear-gradient"/>
  </defs>
  <g id="Layer_1-2" data-name="Layer 1">
    <g>
      <path class="cls-4" d="m95.08,122.42c3.61-9.58,11.29-21.09,27.64-27.16,3.11-1.16,3.1-5.56,0-6.73-9.81-3.71-22.19-11.49-27.91-27.69-1.06-3.01-5.28-3.13-6.44-.15-3.8,9.7-11.55,21.94-27.18,27.63-3.07,1.12-3.15,5.39-.12,6.59,9.52,3.77,21.13,11.54,27.18,27.5,1.2,3.16,5.65,3.16,6.84,0Z"/>
      <path class="cls-1" d="m117.62,78.9c.95-3.54,3.58-8.75,10.92-10.8.6-.17.6-1.01,0-1.18-3.54-1-9.2-3.73-10.98-11-.14-.56-.91-.58-1.07-.03-1.04,3.5-3.78,9.16-10.83,10.94-.58.15-.59.96-.02,1.13,3.51,1.03,8.78,3.75,10.79,10.95.17.6,1.03.6,1.19,0Z"/>
      <path class="cls-3" d="m54.64,77.65c-.61.06-1.22.09-1.83.1-5.48.02-10.53-2.28-15.14-6.89-4.54-4.54-6.72-9.85-6.56-15.94.16-6.09,2.63-11.53,7.42-16.32,4.96-4.96,10.56-7.55,16.8-7.74,6.23-.2,11.67,2.03,16.32,6.67,4.81,4.81,6.84,10.35,6.12,16.61h32.02c0-14.37-5.36-26.91-16.07-37.62C82.75,5.56,69.81.05,54.9,0c-14.91-.05-27.82,5.37-38.71,16.26C5.36,27.09-.04,39.82,0,54.47c.04,14.65,5.5,27.42,16.4,38.31,10.72,10.72,22.62,16.19,35.71,16.42.84.01,1.68,0,2.53-.02v-31.53Z"/>
    </g>
    <g>
      <path class="cls-2" d="m155.6,43.51c2.04-3.57,4.81-6.35,8.34-8.34,3.52-1.99,7.47-2.99,11.85-2.99,5.12,0,9.61,1.31,13.46,3.94,3.85,2.63,6.54,6.26,8.08,10.9h-10.57c-1.05-2.19-2.53-3.83-4.43-4.92-1.9-1.09-4.1-1.64-6.6-1.64-2.67,0-5.05.62-7.13,1.87s-3.7,3.01-4.86,5.29c-1.16,2.28-1.74,4.95-1.74,8.01s.58,5.68,1.74,7.98c1.16,2.3,2.78,4.07,4.86,5.32s4.45,1.87,7.13,1.87c2.49,0,4.69-.56,6.6-1.67s3.38-2.77,4.43-4.96h10.57c-1.53,4.68-4.21,8.33-8.04,10.93-3.83,2.6-8.33,3.91-13.49,3.91-4.38,0-8.33-1-11.85-2.99-3.52-1.99-6.3-4.76-8.34-8.31-2.04-3.55-3.05-7.57-3.05-12.08s1.02-8.55,3.05-12.11Z"/>
      <path class="cls-2" d="m233.04,43.51c2.14,1.2,3.82,2.98,5.02,5.32s1.81,5.15,1.81,8.44v21.34h-9.19v-20.09c0-2.89-.72-5.11-2.17-6.66-1.45-1.55-3.42-2.33-5.91-2.33s-4.54.78-6.01,2.33c-1.47,1.55-2.2,3.78-2.2,6.66v20.09h-9.19V30.01h9.19v16.74c1.18-1.58,2.76-2.81,4.73-3.71,1.97-.9,4.16-1.35,6.57-1.35,2.76,0,5.21.6,7.35,1.81Z"/>
      <path class="cls-2" d="m248.44,50.5c1.47-2.85,3.46-5.03,5.97-6.57,2.52-1.53,5.33-2.3,8.44-2.3,2.71,0,5.09.55,7.12,1.64,2.04,1.09,3.67,2.47,4.89,4.14v-5.19h9.26v36.38h-9.26v-5.32c-1.18,1.71-2.81,3.12-4.89,4.23-2.08,1.12-4.48,1.67-7.19,1.67-3.06,0-5.86-.79-8.37-2.36-2.52-1.58-4.51-3.8-5.97-6.66-1.47-2.87-2.2-6.16-2.2-9.88s.73-6.94,2.2-9.78Zm25.12,4.17c-.88-1.6-2.06-2.82-3.55-3.68-1.49-.85-3.09-1.28-4.79-1.28s-3.28.42-4.73,1.25c-1.44.83-2.62,2.05-3.51,3.64-.9,1.6-1.35,3.49-1.35,5.68s.45,4.1,1.35,5.75c.9,1.64,2.08,2.9,3.55,3.78,1.47.88,3.03,1.31,4.69,1.31s3.3-.43,4.79-1.28c1.49-.85,2.67-2.08,3.55-3.68.87-1.6,1.31-3.51,1.31-5.75s-.44-4.15-1.31-5.75Z"/>
      <path class="cls-2" d="m306.94,43.34c1.9-1.09,4.08-1.64,6.53-1.64v9.65h-2.43c-2.89,0-5.07.68-6.53,2.04-1.47,1.36-2.2,3.72-2.2,7.09v18.12h-9.19v-36.38h9.19v5.65c1.18-1.93,2.73-3.44,4.63-4.53Z"/>
      <path class="cls-2" d="m330.35,49.78v17.6c0,1.23.3,2.11.89,2.66.59.55,1.59.82,2.99.82h4.27v7.75h-5.78c-7.75,0-11.62-3.76-11.62-11.29v-17.53h-4.33v-7.55h4.33v-8.99h9.26v8.99h8.14v7.55h-8.14Z"/>
      <path class="cls-2" d="m351.82,76.86c-2.8-1.55-5-3.75-6.6-6.6-1.6-2.85-2.4-6.13-2.4-9.85s.82-7,2.46-9.85c1.64-2.85,3.88-5.04,6.73-6.6,2.84-1.55,6.02-2.33,9.52-2.33s6.68.78,9.52,2.33c2.84,1.55,5.09,3.75,6.73,6.6,1.64,2.85,2.46,6.13,2.46,9.85s-.84,7-2.53,9.85c-1.69,2.85-3.96,5.05-6.83,6.6-2.87,1.55-6.07,2.33-9.62,2.33s-6.65-.78-9.46-2.33Zm14.15-6.89c1.47-.81,2.64-2.02,3.51-3.64.87-1.62,1.31-3.59,1.31-5.91,0-3.46-.91-6.12-2.73-7.98-1.82-1.86-4.04-2.79-6.66-2.79s-4.83.93-6.6,2.79c-1.77,1.86-2.66,4.52-2.66,7.98s.86,6.12,2.59,7.98c1.73,1.86,3.91,2.79,6.53,2.79,1.66,0,3.23-.4,4.69-1.22Z"/>
      <path class="cls-2" d="m400.83,43.34c1.9-1.09,4.08-1.64,6.53-1.64v9.65h-2.43c-2.89,0-5.07.68-6.53,2.04-1.47,1.36-2.2,3.72-2.2,7.09v18.12h-9.19v-36.38h9.19v5.65c1.18-1.93,2.73-3.44,4.63-4.53Z"/>
      <path class="cls-2" d="m413.37,50.5c1.47-2.85,3.46-5.03,5.97-6.57,2.52-1.53,5.33-2.3,8.44-2.3,2.71,0,5.09.55,7.12,1.64,2.04,1.09,3.67,2.47,4.89,4.14v-5.19h9.26v36.38h-9.26v-5.32c-1.18,1.71-2.81,3.12-4.89,4.23-2.08,1.12-4.48,1.67-7.19,1.67-3.06,0-5.86-.79-8.37-2.36-2.52-1.58-4.51-3.8-5.97-6.66-1.47-2.87-2.2-6.16-2.2-9.88s.73-6.94,2.2-9.78Zm25.12,4.17c-.88-1.6-2.06-2.82-3.55-3.68-1.49-.85-3.09-1.28-4.79-1.28s-3.28.42-4.73,1.25c-1.44.83-2.62,2.05-3.51,3.64-.9,1.6-1.35,3.49-1.35,5.68s.45,4.1,1.35,5.75c.9,1.64,2.08,2.9,3.55,3.78,1.47.88,3.03,1.31,4.69,1.31s3.3-.43,4.79-1.28c1.49-.85,2.67-2.08,3.55-3.68.87-1.6,1.31-3.51,1.31-5.75s-.44-4.15-1.31-5.75Z"/>
      <path class="cls-2" d="m501.78,69.87h-18.25l-3.02,8.73h-9.65l16.48-45.9h10.7l16.48,45.9h-9.72l-3.02-8.73Zm-2.49-7.35l-6.63-19.17-6.63,19.17h13.26Z"/>
      <path class="cls-2" d="m529.89,32.77v45.83h-9.19v-45.83h9.19Z"/>
    </g>
  </g>
</svg>