<?xml version="1.0" encoding="UTF-8"?>
<svg id="Layer_2" data-name="Layer 2" xmlns="http://www.w3.org/2000/svg" xmlns:xlink="http://www.w3.org/1999/xlink" viewBox="0 0 128.99 124.79">
  <defs>
    <style>
      .cls-1 {
        fill: url(#linear-gradient-2);
      }

      .cls-2 {
        fill: url(#linear-gradient-3);
      }

      .cls-3 {
        fill: url(#linear-gradient);
      }
    </style>
    <linearGradient id="linear-gradient" x1="58.83" y1="91.65" x2="125.05" y2="91.65" gradientUnits="userSpaceOnUse">
      <stop offset=".05" stop-color="#2b2565"/>
      <stop offset=".63" stop-color="#61489d"/>
      <stop offset="1" stop-color="#6a52a2"/>
    </linearGradient>
    <linearGradient id="linear-gradient-2" x1="105.21" y1="67.43" x2="128.99" y2="67.43" xlink:href="#linear-gradient"/>
    <linearGradient id="linear-gradient-3" x1="0" y1="54.6" x2="109.78" y2="54.6" xlink:href="#linear-gradient"/>
  </defs>
  <g id="Layer_1-2" data-name="Layer 1">
    <g>
      <path class="cls-3" d="m95.08,122.42c3.61-9.58,11.29-21.09,27.64-27.16,3.11-1.16,3.1-5.56,0-6.73-9.81-3.71-22.19-11.49-27.91-27.69-1.06-3.01-5.28-3.13-6.44-.15-3.8,9.7-11.55,21.94-27.18,27.63-3.07,1.12-3.15,5.39-.12,6.59,9.52,3.77,21.13,11.54,27.18,27.5,1.2,3.16,5.65,3.16,6.84,0Z"/>
      <path class="cls-1" d="m117.62,78.9c.95-3.54,3.58-8.75,10.92-10.8.6-.17.6-1.01,0-1.18-3.54-1-9.2-3.73-10.98-11-.14-.56-.91-.58-1.07-.03-1.04,3.5-3.78,9.16-10.83,10.94-.58.15-.59.96-.02,1.13,3.51,1.03,8.78,3.75,10.79,10.95.17.6,1.03.6,1.19,0Z"/>
      <path class="cls-2" d="m54.64,77.65c-.61.06-1.22.09-1.83.1-5.48.02-10.53-2.28-15.14-6.89-4.54-4.54-6.72-9.85-6.56-15.94.16-6.09,2.63-11.53,7.42-16.32,4.96-4.96,10.56-7.55,16.8-7.74,6.23-.2,11.67,2.03,16.32,6.67,4.81,4.81,6.84,10.35,6.12,16.61h32.02c0-14.37-5.36-26.91-16.07-37.62C82.75,5.56,69.81.05,54.9,0c-14.91-.05-27.82,5.37-38.71,16.26C5.36,27.09-.04,39.82,0,54.47c.04,14.65,5.5,27.42,16.4,38.31,10.72,10.72,22.62,16.19,35.71,16.42.84.01,1.68,0,2.53-.02v-31.53Z"/>
    </g>
  </g>
</svg>