<svg width="1395" height="958" viewBox="0 0 1395 958" fill="none" xmlns="http://www.w3.org/2000/svg">
<path id="Vector 2" d="M0.5 109V927.371C0.5 943.99 14.0103 957.442 30.6291 957.37L1365.13 951.629C1381.65 951.557 1395 938.147 1395 921.629V109C1395 92.4315 1381.57 79 1365 79H1084.5C1067.93 79 1054.5 65.5685 1054.5 49V30.5C1054.5 13.9315 1041.07 0.5 1024.5 0.5H365.5C348.931 0.5 335.5 13.9315 335.5 30.5V49C335.5 65.5685 322.069 79 305.5 79H30.5C13.9315 79 0.5 92.4314 0.5 109Z" fill="#D7D7D7"/>
</svg>
