<?xml version="1.0" encoding="UTF-8"?>
<svg width="410" height="404" viewBox="0 0 410 404" fill="none" xmlns="http://www.w3.org/2000/svg">
<path d="m399.641 59.5246-215.643 388.545c-3.441 6.194-12.314 6.194-15.755 0l-215.643-388.545c-3.441-6.194 0.859-13.937 7.878-13.937h431.285c7.019 0 11.319 7.743 7.878 13.937z" fill="url(#a)"/>
<path d="m292.965 1.5744-156.731 283.11c-2.46 4.442-8.821 4.442-11.281 0l-156.731-283.11c-2.46-4.442 0.615-9.996 5.641-9.996h313.461c5.026 0 8.101 5.554 5.641 9.996z" fill="url(#b)"/>
<defs>
<linearGradient id="a" x1="6.00017" y1="32.9999" x2="235" y2="344" gradientUnits="userSpaceOnUse">
<stop stop-color="#41d1ff"/>
<stop offset="1" stop-color="#bd34fe"/>
</linearGradient>
<linearGradient id="b" x1="194.651" y1="8.81818" x2="236.076" y2="292.989" gradientUnits="userSpaceOnUse">
<stop stop-color="#ffea83"/>
<stop offset="0.0833333" stop-color="#ffdd35"/>
<stop offset="1" stop-color="#ffa800"/>
</linearGradient>
</defs>
</svg>
